<?xml version="1.0" ?><svg style="enable-background:new 0 0 44 44;" version="1.1" viewBox="0 0 44 44" xml:space="preserve" xmlns="http://www.w3.org/2000/svg" xmlns:xlink="http://www.w3.org/1999/xlink"><g id="ghost"/><g id="bat"/><g id="monster"/><g id="jason"/><g id="grave"/><g id="skull"/><g id="cauldron"/><g id="cleaver"/><g id="candle"/><g id="cat"><g><circle cx="29" cy="12" r="1"/><circle cx="23" cy="12" r="1"/><path d="M27.924,14.617C27.77,14.244,27.404,14,27,14h-2c-0.404,0-0.77,0.244-0.924,0.617c-0.155,0.374-0.069,0.804,0.217,1.09    L25,16.414V17c0,0.552,0.447,1,1,1s1-0.448,1-1v-0.586l0.707-0.707C27.993,15.421,28.079,14.991,27.924,14.617z"/><path d="M26,24c-1.625,0-3.16-0.258-4.493-0.697c-0.241,0.639-0.573,1.239-0.977,1.793C22.133,25.67,23.993,26,26,26    s3.867-0.33,5.47-0.904c-0.404-0.554-0.737-1.154-0.977-1.793C29.16,23.742,27.625,24,26,24z"/><circle cx="26" cy="26" r="1"/><path d="M9,37c0-2.757,2.243-5,5-5h1v9c0,0.352,0.072,0.686,0.184,1H14C11.243,42,9,39.757,9,37z M28.053,21.826    c0.177,0.522,0.745,0.806,1.267,0.628c0.288-0.097,0.567-0.208,0.841-0.327c0.352,1.742,1.294,3.315,2.714,4.452    C34.226,27.66,35,29.271,35,31v10c0,0.551-0.448,1-1,1h-1.102c-0.245-1.307-0.956-2.329-1.898-2.763V33c0-0.552-0.447-1-1-1    s-1,0.448-1,1v7c0,0.552,0.447,1,1,1c0.28,0,0.643,0.374,0.846,1H27v-6c0-0.552-0.447-1-1-1s-1,0.448-1,1v6h-3.846    c0.202-0.626,0.565-1,0.846-1c0.553,0,1-0.448,1-1v-7c0-0.552-0.447-1-1-1s-1,0.448-1,1v6.237    c-0.942,0.433-1.653,1.456-1.898,2.763H18c-0.552,0-1-0.449-1-1v-9c2.493,0,4.847-0.789,6.627-2.221    c0.431-0.346,0.498-0.976,0.152-1.406c-0.348-0.43-0.977-0.499-1.406-0.152c-1.403,1.129-3.274,1.756-5.276,1.776    c0.239-1.338,0.944-2.55,2.028-3.417c1.416-1.133,2.356-2.699,2.711-4.434c0.279,0.119,0.563,0.231,0.855,0.327    c0.104,0.035,0.21,0.051,0.313,0.051c0.42,0,0.811-0.267,0.949-0.687c0.174-0.524-0.111-1.09-0.636-1.263    c-3.282-1.085-5.609-4.136-5.791-7.591L17,3V2.277c0-0.25,0.387-0.357,0.515-0.143l1.797,2.996    c0.694,1.156,2.101,1.702,3.423,1.329c2.166-0.614,4.365-0.614,6.531,0c1.328,0.375,2.729-0.172,3.421-1.327l1.799-2.999    C34.613,1.92,35,2.029,35,2.277l0.002,0.665l-0.571,9.998c-0.167,3.508-2.424,6.499-5.75,7.619    C28.157,20.735,27.876,21.302,28.053,21.826z M36.428,13.045L37,3V2.277C37,1.021,35.979,0,34.723,0    c-0.796,0-1.544,0.424-1.952,1.105l-1.799,2.998c-0.234,0.389-0.702,0.561-1.161,0.431c-2.529-0.716-5.092-0.715-7.621,0    c-0.467,0.132-0.93-0.044-1.163-0.433l-1.797-2.995C18.821,0.424,18.073,0,17.277,0C16.021,0,15,1.021,15,2.277l0.529,10.811    c0.174,3.297,1.842,6.213,4.442,8.023c-0.138,1.531-0.881,2.935-2.096,3.907c-1.563,1.251-2.55,3.03-2.804,4.982H14    c-3.859,0-7,3.14-7,7s3.141,7,7,7h4h16c1.654,0,3-1.346,3-3V31c0-2.34-1.048-4.521-2.875-5.982    c-1.223-0.979-1.967-2.394-2.098-3.937C34.617,19.258,36.271,16.335,36.428,13.045z"/></g></g><g id="owl"/><g id="pumkin"/><g id="eye"/><g id="vampire"/><g id="finger"/><g id="leaf"/><g id="coffin"/><g id="broom"/><g id="moon"/><g id="poison"/><g id="sweet"/><g id="zombie"/><g id="hat"/><g id="candy"/></svg>